<?xml version="1.0" encoding="utf-8"?>
<svg version="1.1" id="Layer_1" xmlns="http://www.w3.org/2000/svg" x="0" y="0"
	 viewBox="0 0 220 220" style="enable-background:new 0 0 220 220;" xml:space="preserve">
	<path fill="#FF6666" d="M203,0H17C7.6,0,0,7.6,0,17v186c0,9.4,7.6,17,17,17h186c9.4,0,17-7.6,17-17V17C220,7.6,212.4,0,203,0z
		 M111.5,186.4c-42.2,0.8-77-32.7-77.8-74.9c-0.8-42.2,32.7-77,74.9-77.8c42.2-0.8,77,32.7,77.8,74.9c0,1,0,1.9,0,2.9
		C185.6,152.5,152.5,185.6,111.5,186.4z"/>
	<path fill="#FF6666" d="M37.2,78.6l14.8-22l48,61.2l-17.4,18.6L37.2,78.6z"/>
	<path fill="#FF6666" d="M148.9,159.6H86.4l-14.6,34.3l-27.2,0.7c23.3-53.8,46.6-107.4,69.9-161.1l8.8,1.1l62.1,146.1l-27.4,0.1
		L148.9,159.6z M95.9,137.5H140l-15.1-36.8l-6.6-16.1c-2.4,5.7-4.8,11.4-7.2,17.2C106,113.7,101,125.6,95.9,137.5L95.9,137.5z"/>
	<polygon fill="#FF6666" points="188.8,84.3 158.2,123.2 140.8,104.6 177.9,57.4"/>
	<line x1="188.8" y1="84.3" x2="177.9" y2="57.4" />
</svg>
